<!--?xml version="1.0" standalone="no"?-->
              <svg id="sw-js-blob-svg" viewBox="0 0 100 100" xmlns="http://www.w3.org/2000/svg" version="1.1">
                    <defs> 
                        <linearGradient id="sw-gradient" x1="0" x2="1" y1="1" y2="0">
                            <stop id="stop1" stop-color="rgba(248, 117, 55, 1)" offset="0%"></stop>
                            <stop id="stop2" stop-color="rgba(251, 168, 31, 1)" offset="100%"></stop>
                        </linearGradient>
                    </defs>
                <path fill="url(#sw-gradient)" d="M21.5,-35.7C28.6,-33.1,35.7,-28.9,39.4,-22.7C43.1,-16.5,43.3,-8.2,43,-0.2C42.7,7.9,41.9,15.8,38.6,22.7C35.4,29.6,29.6,35.4,22.7,38.7C15.9,42,7.9,42.7,0.8,41.3C-6.3,39.9,-12.7,36.4,-19.7,33.2C-26.7,30,-34.5,27.2,-37.9,21.7C-41.2,16.3,-40.3,8.1,-39.4,0.5C-38.6,-7.2,-37.9,-14.3,-35.1,-20.8C-32.2,-27.2,-27.3,-32.9,-21,-36.1C-14.8,-39.3,-7.4,-40.1,-0.1,-39.8C7.2,-39.6,14.3,-38.4,21.5,-35.7Z" width="100%" height="100%" transform="translate(50 50)" stroke-width="0" style="transition: all 0.3s ease 0s;"></path>
              </svg>