<svg id="visual" viewBox="0 0 900 600" width="900" height="600" xmlns="http://www.w3.org/2000/svg" xmlns:xlink="http://www.w3.org/1999/xlink" version="1.1"><rect x="0" y="0" width="900" height="600" fill="#FFFFFF"></rect><defs><linearGradient id="grad1_0" x1="33.3%" y1="0%" x2="100%" y2="100%"><stop offset="20%" stop-color="#ffffff" stop-opacity="1"></stop><stop offset="80%" stop-color="#ffffff" stop-opacity="1"></stop></linearGradient></defs><defs><linearGradient id="grad2_0" x1="0%" y1="0%" x2="66.7%" y2="100%"><stop offset="20%" stop-color="#ffffff" stop-opacity="1"></stop><stop offset="80%" stop-color="#ffffff" stop-opacity="1"></stop></linearGradient></defs><g transform="translate(900, 0)"><path d="M0 432.7C-53.1 415.1 -106.2 397.6 -155.8 376C-205.3 354.4 -251.2 328.7 -294.2 294.2C-337.1 259.6 -377.1 216.1 -399.7 165.6C-422.3 115.1 -427.5 57.5 -432.7 0L0 0Z" fill="#6600FF"></path></g><g transform="translate(0, 600)"><path d="M0 -432.7C55.6 -419 111.1 -405.4 157.7 -380.6C204.2 -355.9 241.8 -320 284.3 -284.3C326.7 -248.5 374.2 -212.9 399.7 -165.6C425.3 -118.2 429 -59.1 432.7 0L0 0Z" fill="#6600FF"></path></g></svg>