<svg id="visual" viewBox="0 0 900 600" width="900" height="600" xmlns="http://www.w3.org/2000/svg" xmlns:xlink="http://www.w3.org/1999/xlink" version="1.1"><rect x="0" y="0" width="900" height="600" fill="#FFFFFF"></rect><defs><linearGradient id="grad1_0" x1="33.3%" y1="0%" x2="100%" y2="100%"><stop offset="20%" stop-color="#6600ff" stop-opacity="1"></stop><stop offset="80%" stop-color="#6600ff" stop-opacity="1"></stop></linearGradient></defs><defs><linearGradient id="grad1_1" x1="33.3%" y1="0%" x2="100%" y2="100%"><stop offset="20%" stop-color="#6600ff" stop-opacity="1"></stop><stop offset="80%" stop-color="#aa6cff" stop-opacity="1"></stop></linearGradient></defs><defs><linearGradient id="grad1_2" x1="33.3%" y1="0%" x2="100%" y2="100%"><stop offset="20%" stop-color="#dab5ff" stop-opacity="1"></stop><stop offset="80%" stop-color="#aa6cff" stop-opacity="1"></stop></linearGradient></defs><defs><linearGradient id="grad1_3" x1="33.3%" y1="0%" x2="100%" y2="100%"><stop offset="20%" stop-color="#dab5ff" stop-opacity="1"></stop><stop offset="80%" stop-color="#ffffff" stop-opacity="1"></stop></linearGradient></defs><defs><linearGradient id="grad2_0" x1="0%" y1="0%" x2="66.7%" y2="100%"><stop offset="20%" stop-color="#6600ff" stop-opacity="1"></stop><stop offset="80%" stop-color="#6600ff" stop-opacity="1"></stop></linearGradient></defs><defs><linearGradient id="grad2_1" x1="0%" y1="0%" x2="66.7%" y2="100%"><stop offset="20%" stop-color="#aa6cff" stop-opacity="1"></stop><stop offset="80%" stop-color="#6600ff" stop-opacity="1"></stop></linearGradient></defs><defs><linearGradient id="grad2_2" x1="0%" y1="0%" x2="66.7%" y2="100%"><stop offset="20%" stop-color="#aa6cff" stop-opacity="1"></stop><stop offset="80%" stop-color="#dab5ff" stop-opacity="1"></stop></linearGradient></defs><defs><linearGradient id="grad2_3" x1="0%" y1="0%" x2="66.7%" y2="100%"><stop offset="20%" stop-color="#ffffff" stop-opacity="1"></stop><stop offset="80%" stop-color="#dab5ff" stop-opacity="1"></stop></linearGradient></defs><g transform="translate(900, 0)"><path d="M0 432.7C-55.4 419.4 -110.7 406.2 -158.4 382.5C-206.1 358.8 -246.2 324.7 -288.5 288.5C-330.8 252.3 -375.3 214 -399.7 165.6C-424.1 117.1 -428.4 58.6 -432.7 0L0 0Z" fill="#eddaff"></path><path d="M0 324.5C-41.5 314.6 -83 304.6 -118.8 286.9C-154.6 269.1 -184.7 243.5 -216.4 216.4C-248.1 189.2 -281.5 160.5 -299.8 124.2C-318.1 87.9 -321.3 43.9 -324.5 0L0 0Z" fill="#c391ff"></path><path d="M0 216.3C-27.7 209.7 -55.4 203.1 -79.2 191.2C-103.1 179.4 -123.1 162.3 -144.2 144.2C-165.4 126.1 -187.7 107 -199.9 82.8C-212.1 58.6 -214.2 29.3 -216.3 0L0 0Z" fill="#8c44ff"></path><path d="M0 108.2C-13.8 104.9 -27.7 101.5 -39.6 95.6C-51.5 89.7 -61.6 81.2 -72.1 72.1C-82.7 63.1 -93.8 53.5 -99.9 41.4C-106 29.3 -107.1 14.6 -108.2 0L0 0Z" fill="#6600ff"></path></g><g transform="translate(0, 600)"><path d="M0 -432.7C50.6 -408.3 101.3 -384 150 -362.2C198.7 -340.3 245.5 -321 289.9 -289.9C334.3 -258.8 376.3 -215.9 399.7 -165.6C423.1 -115.3 427.9 -57.6 432.7 0L0 0Z" fill="#eddaff"></path><path d="M0 -324.5C38 -306.2 76 -288 112.5 -271.6C149 -255.3 184.1 -240.8 217.4 -217.4C250.7 -194.1 282.3 -161.9 299.8 -124.2C317.3 -86.5 320.9 -43.2 324.5 0L0 0Z" fill="#c391ff"></path><path d="M0 -216.3C25.3 -204.2 50.6 -192 75 -181.1C99.4 -170.2 122.8 -160.5 145 -145C167.2 -129.4 188.2 -107.9 199.9 -82.8C211.6 -57.6 213.9 -28.8 216.3 0L0 0Z" fill="#8c44ff"></path><path d="M0 -108.2C12.7 -102.1 25.3 -96 37.5 -90.5C49.7 -85.1 61.4 -80.3 72.5 -72.5C83.6 -64.7 94.1 -54 99.9 -41.4C105.8 -28.8 107 -14.4 108.2 0L0 0Z" fill="#6600ff"></path></g></svg>