<?xml version="1.0" encoding="utf-8"?>
<svg xmlns="http://www.w3.org/2000/svg" style="margin: auto; background: none; display: block; shape-rendering: auto;" width="280" height="82" preserveAspectRatio="xMidYMid">
<style type="text/css">
  text {
    text-anchor: middle; font-size: 55px; opacity: 0;
  }
</style>
<g style="transform-origin:140px 41px;transform:scale(1)">
<g transform="translate(140,41)">
  <g transform="translate(0,0)"><g class="path" style="transform: scale(0.91); transform-origin: -108.145px -6.42838px; animation: 1s linear -0.586667s infinite normal forwards running breath-6faeda74-00ad-4d1a-9184-c4616cb68b48;"><path d="M32.76-43.77L32.76-43.77L27.63-35.29L27.63-35.29Q27.55-36.31 27.26-37.64L27.26-37.64L27.26-37.64Q26.96-38.97 26.28-40.15L26.28-40.15L26.28-40.15Q25.59-41.33 24.40-42.15L24.40-42.15L24.40-42.15Q23.20-42.97 21.35-42.97L21.35-42.97L21.35-42.97Q19.44-42.97 18.29-42.22L18.29-42.22L18.29-42.22Q17.13-41.46 16.52-39.96L16.52-39.96L16.52-39.96Q15.90-38.46 15.68-36.23L15.68-36.23L15.68-36.23Q15.47-34.00 15.47-31.04L15.47-31.04L24.87-31.04L24.87-27.45L15.47-27.45L15.47 0L6.36 0L6.36-27.45L0.73-27.45L0.73-31.04L6.36-31.04L6.36-31.04Q6.36-35.31 7.28-38.38L7.28-38.38L7.28-38.38Q8.19-41.44 10.04-43.41L10.04-43.41L10.04-43.41Q11.90-45.39 14.70-46.31L14.70-46.31L14.70-46.31Q17.51-47.24 21.27-47.24L21.27-47.24L21.27-47.24Q23.53-47.24 25.31-46.93L25.31-46.93L25.31-46.93Q27.10-46.62 28.48-46.12L28.48-46.12L28.48-46.12Q29.86-45.63 30.91-45.01L30.91-45.01L30.91-45.01Q31.96-44.39 32.76-43.77" fill="#51cacc" stroke="none" stroke-width="none" transform="translate(-124.89004039764404,17.191622225443528)" style="fill: rgb(81, 202, 204);"></path></g><g class="path" style="transform: scale(0.91); transform-origin: -87.21px -5.46338px; animation: 1s linear -0.513333s infinite normal forwards running breath-6faeda74-00ad-4d1a-9184-c4616cb68b48;"><path d="M42.22-35.88L42.22 0L33.14 0L33.14-45.31L36.63-45.31L42.22-35.88" fill="#51cacc" stroke="none" stroke-width="none" transform="translate(-124.89004039764404,17.191622225443528)" style="fill: rgb(157, 248, 113);"></path></g><g class="path" style="transform: scale(0.91); transform-origin: -70.525px -21.3034px; animation: 1s linear -0.44s infinite normal forwards running breath-6faeda74-00ad-4d1a-9184-c4616cb68b48;"><path d="M59.32-38.51L59.32-38.51L59.32-38.51Q59.32-37.49 58.93-36.58L58.93-36.58L58.93-36.58Q58.54-35.66 57.87-34.99L57.87-34.99L57.87-34.99Q57.20-34.32 56.29-33.93L56.29-33.93L56.29-33.93Q55.38-33.54 54.36-33.54L54.36-33.54L54.36-33.54Q53.33-33.54 52.44-33.93L52.44-33.93L52.44-33.93Q51.54-34.32 50.86-34.99L50.86-34.99L50.86-34.99Q50.19-35.66 49.80-36.58L49.80-36.58L49.80-36.58Q49.41-37.49 49.41-38.51L49.41-38.51L49.41-38.51Q49.41-39.53 49.80-40.43L49.80-40.43L49.80-40.43Q50.19-41.33 50.86-42.00L50.86-42.00L50.86-42.00Q51.54-42.67 52.44-43.06L52.44-43.06L52.44-43.06Q53.33-43.45 54.36-43.45L54.36-43.45L54.36-43.45Q55.38-43.45 56.29-43.06L56.29-43.06L56.29-43.06Q57.20-42.67 57.87-42.00L57.87-42.00L57.87-42.00Q58.54-41.33 58.93-40.43L58.93-40.43L58.93-40.43Q59.32-39.53 59.32-38.51" fill="#51cacc" stroke="none" stroke-width="none" transform="translate(-124.89004039764404,17.191622225443528)" style="fill: rgb(224, 255, 119);"></path></g><g class="path" style="transform: scale(0.91); transform-origin: -70.52px 1.69662px; animation: 1s linear -0.366667s infinite normal forwards running breath-6faeda74-00ad-4d1a-9184-c4616cb68b48;"><path d="M58.92-30.99L58.92 0L49.82 0L49.82-30.99L58.92-30.99" fill="#51cacc" stroke="none" stroke-width="none" transform="translate(-124.89004039764404,17.191622225443528)" style="fill: rgb(222, 157, 214);"></path></g><g class="path" style="transform: scale(0.91); transform-origin: -41.88px 8.46162px; animation: 1s linear -0.293333s infinite normal forwards running breath-6faeda74-00ad-4d1a-9184-c4616cb68b48;"><path d="M99.50-15.58L99.50-15.58L99.50-15.58Q99.50-12.19 98.48-9.24L98.48-9.24L98.48-9.24Q97.46-6.28 95.52-4.10L95.52-4.10L95.52-4.10Q93.59-1.91 90.80-0.64L90.80-0.64L90.80-0.64Q88.01 0.62 84.46 0.62L84.46 0.62L84.46 0.62Q81.75 0.62 79.48-0.44L79.48-0.44L79.48-0.44Q77.21-1.50 75.60-3.71L75.60-3.71L75.60 14.31L66.52 14.31L66.52-31.02L70.01-31.02L74.04-24.28L74.04-24.28Q74.63-25.97 75.67-27.35L75.67-27.35L75.67-27.35Q76.70-28.74 78.06-29.72L78.06-29.72L78.06-29.72Q79.41-30.70 81.04-31.23L81.04-31.23L81.04-31.23Q82.66-31.77 84.46-31.77L84.46-31.77L84.46-31.77Q88.01-31.77 90.80-30.51L90.80-30.51L90.80-30.51Q93.59-29.25 95.52-27.06L95.52-27.06L95.52-27.06Q97.46-24.87 98.48-21.91L98.48-21.91L98.48-21.91Q99.50-18.96 99.50-15.58zM90.29-15.58L90.29-15.58L90.29-15.58Q90.29-16.76 90.17-18.09L90.17-18.09L90.17-18.09Q90.05-19.42 89.75-20.73L89.75-20.73L89.75-20.73Q89.46-22.05 88.93-23.26L88.93-23.26L88.93-23.26Q88.41-24.47 87.60-25.39L87.60-25.39L87.60-25.39Q86.80-26.32 85.66-26.87L85.66-26.87L85.66-26.87Q84.51-27.42 83.01-27.42L83.01-27.42L83.01-27.42Q81.45-27.42 80.31-26.88L80.31-26.88L80.31-26.88Q79.17-26.35 78.35-25.42L78.35-25.42L78.35-25.42Q77.53-24.49 77.01-23.30L77.01-23.30L77.01-23.30Q76.48-22.10 76.19-20.79L76.19-20.79L76.19-20.79Q75.89-19.47 75.77-18.13L75.77-18.13L75.77-18.13Q75.65-16.78 75.65-15.58L75.65-15.58L75.65-15.58Q75.65-14.50 75.81-13.20L75.81-13.20L75.81-13.20Q75.97-11.90 76.32-10.58L76.32-10.58L76.32-10.58Q76.67-9.27 77.24-8.03L77.24-8.03L77.24-8.03Q77.80-6.79 78.62-5.83L78.62-5.83L78.62-5.83Q79.44-4.86 80.53-4.28L80.53-4.28L80.53-4.28Q81.61-3.71 83.01-3.71L83.01-3.71L83.01-3.71Q84.54-3.71 85.67-4.26L85.67-4.26L85.67-4.26Q86.80-4.81 87.60-5.73L87.60-5.73L87.60-5.73Q88.41-6.66 88.93-7.87L88.93-7.87L88.93-7.87Q89.46-9.08 89.75-10.39L89.75-10.39L89.75-10.39Q90.05-11.71 90.17-13.05L90.17-13.05L90.17-13.05Q90.29-14.39 90.29-15.58" fill="#51cacc" stroke="none" stroke-width="none" transform="translate(-124.89004039764404,17.191622225443528)" style="fill: rgb(255, 112, 142);"></path></g><g class="path" style="transform: scale(0.91); transform-origin: -0.655041px 1.68162px; animation: 1s linear -0.22s infinite normal forwards running breath-6faeda74-00ad-4d1a-9184-c4616cb68b48;"><path d="M124.05-18.85L118.92 0L110.75 0L102.27-31.02L111.34-31.02L116.66-9.27L121.09-31.02L129.26-31.02L134.68-8.67L139.92-31.02L146.20-31.02L136.80 0L128.64 0L124.05-18.85" fill="#51cacc" stroke="none" stroke-width="none" transform="translate(-124.89004039764404,17.191622225443528)" style="fill: rgb(81, 202, 204);"></path></g><g class="path" style="transform: scale(0.91); transform-origin: 40.325px 1.61662px; animation: 1s linear -0.146667s infinite normal forwards running breath-6faeda74-00ad-4d1a-9184-c4616cb68b48;"><path d="M181.70-31.02L181.70 0L172.63 0L172.63-3.71L172.63-3.71Q171.02-1.50 168.75-0.44L168.75-0.44L168.75-0.44Q166.48 0.62 163.76 0.62L163.76 0.62L163.76 0.62Q160.22 0.62 157.43-0.64L157.43-0.64L157.43-0.64Q154.63-1.91 152.70-4.10L152.70-4.10L152.70-4.10Q150.77-6.28 149.75-9.24L149.75-9.24L149.75-9.24Q148.73-12.19 148.73-15.58L148.73-15.58L148.73-15.58Q148.73-18.96 149.75-21.91L149.75-21.91L149.75-21.91Q150.77-24.87 152.70-27.06L152.70-27.06L152.70-27.06Q154.63-29.25 157.43-30.51L157.43-30.51L157.43-30.51Q160.22-31.77 163.76-31.77L163.76-31.77L163.76-31.77Q165.56-31.77 167.19-31.23L167.19-31.23L167.19-31.23Q168.81-30.70 170.17-29.72L170.17-29.72L170.17-29.72Q171.53-28.74 172.56-27.35L172.56-27.35L172.56-27.35Q173.59-25.97 174.18-24.28L174.18-24.28L178.21-31.02L181.70-31.02zM172.57-15.58L172.57-15.58L172.57-15.58Q172.57-16.78 172.45-18.13L172.45-18.13L172.45-18.13Q172.33-19.47 172.04-20.79L172.04-20.79L172.04-20.79Q171.74-22.10 171.22-23.30L171.22-23.30L171.22-23.30Q170.69-24.49 169.87-25.42L169.87-25.42L169.87-25.42Q169.06-26.35 167.90-26.88L167.90-26.88L167.90-26.88Q166.75-27.42 165.21-27.42L165.21-27.42L165.21-27.42Q163.68-27.42 162.56-26.87L162.56-26.87L162.56-26.87Q161.43-26.32 160.62-25.39L160.62-25.39L160.62-25.39Q159.82-24.47 159.29-23.26L159.29-23.26L159.29-23.26Q158.77-22.05 158.47-20.73L158.47-20.73L158.47-20.73Q158.18-19.42 158.06-18.09L158.06-18.09L158.06-18.09Q157.94-16.76 157.94-15.58L157.94-15.58L157.94-15.58Q157.94-14.39 158.06-13.05L158.06-13.05L158.06-13.05Q158.18-11.71 158.47-10.39L158.47-10.39L158.47-10.39Q158.77-9.08 159.29-7.87L159.29-7.87L159.29-7.87Q159.82-6.66 160.62-5.73L160.62-5.73L160.62-5.73Q161.43-4.81 162.56-4.26L162.56-4.26L162.56-4.26Q163.68-3.71 165.21-3.71L165.21-3.71L165.21-3.71Q166.61-3.71 167.70-4.28L167.70-4.28L167.70-4.28Q168.79-4.86 169.61-5.83L169.61-5.83L169.61-5.83Q170.42-6.79 170.99-8.03L170.99-8.03L170.99-8.03Q171.55-9.27 171.90-10.58L171.90-10.58L171.90-10.58Q172.25-11.90 172.41-13.20L172.41-13.20L172.41-13.20Q172.57-14.50 172.57-15.58" fill="#51cacc" stroke="none" stroke-width="none" transform="translate(-124.89004039764404,17.191622225443528)" style="fill: rgb(157, 248, 113);"></path></g><g class="path" style="transform: scale(0.91); transform-origin: 76.73px 1.68162px; animation: 1s linear -0.0733333s infinite normal forwards running breath-6faeda74-00ad-4d1a-9184-c4616cb68b48;"><path d="M217.45-31.02L205.23 0L197.07 0L185.79-31.02L194.86-31.02L203.13-6.31L211.16-31.02L217.45-31.02" fill="#51cacc" stroke="none" stroke-width="none" transform="translate(-124.89004039764404,17.191622225443528)" style="fill: rgb(224, 255, 119);"></path></g><g class="path" style="transform: scale(0.91); transform-origin: 109.8px 1.61662px; animation: 1s linear 0s infinite normal forwards running breath-6faeda74-00ad-4d1a-9184-c4616cb68b48;"><path d="M228.14-14.72L228.14-14.72L228.14-14.72Q229.80-14.34 231.47-14.13L231.47-14.13L231.47-14.13Q233.13-13.91 234.82-13.91L234.82-13.91L234.82-13.91Q236.60-13.91 238.11-14.25L238.11-14.25L238.11-14.25Q239.63-14.58 240.75-15.37L240.75-15.37L240.75-15.37Q241.86-16.17 242.50-17.48L242.50-17.48L242.50-17.48Q243.15-18.80 243.15-20.76L243.15-20.76L243.15-20.76Q243.15-22.34 242.72-23.66L242.72-23.66L242.72-23.66Q242.29-24.98 241.44-25.92L241.44-25.92L241.44-25.92Q240.60-26.86 239.36-27.38L239.36-27.38L239.36-27.38Q238.13-27.90 236.49-27.90L236.49-27.90L236.49-27.90Q234.96-27.90 233.74-27.34L233.74-27.34L233.74-27.34Q232.51-26.77 231.59-25.82L231.59-25.82L231.59-25.82Q230.66-24.87 230.00-23.61L230.00-23.61L230.00-23.61Q229.35-22.34 228.92-20.97L228.92-20.97L228.92-20.97Q228.49-19.60 228.30-18.21L228.30-18.21L228.30-18.21Q228.11-16.81 228.11-15.58L228.11-15.58L228.11-15.58Q228.11-15.36 228.11-15.15L228.11-15.15L228.11-15.15Q228.11-14.93 228.14-14.72zM250.51-20.84L250.51-20.84L250.51-20.84Q250.51-18.93 249.89-17.44L249.89-17.44L249.89-17.44Q249.27-15.95 248.21-14.82L248.21-14.82L248.21-14.82Q247.15-13.70 245.75-12.92L245.75-12.92L245.75-12.92Q244.36-12.14 242.77-11.64L242.77-11.64L242.77-11.64Q241.19-11.15 239.51-10.93L239.51-10.93L239.51-10.93Q237.83-10.72 236.25-10.72L236.25-10.72L236.25-10.72Q234.23-10.72 232.27-11.00L232.27-11.00L232.27-11.00Q230.31-11.28 228.41-11.90L228.41-11.90L228.41-11.90Q228.70-10.12 229.35-8.53L229.35-8.53L229.35-8.53Q229.99-6.93 231.06-5.73L231.06-5.73L231.06-5.73Q232.14-4.54 233.71-3.84L233.71-3.84L233.71-3.84Q235.28-3.14 237.43-3.14L237.43-3.14L237.43-3.14Q238.85-3.14 240.14-3.57L240.14-3.57L240.14-3.57Q241.43-4.00 242.50-4.78L242.50-4.78L242.50-4.78Q243.58-5.56 244.40-6.63L244.40-6.63L244.40-6.63Q245.22-7.71 245.73-9.02L245.73-9.02L249.65-7.57L249.65-7.57Q248.76-5.45 247.22-3.91L247.22-3.91L247.22-3.91Q245.67-2.36 243.73-1.36L243.73-1.36L243.73-1.36Q241.78-0.35 239.59 0.13L239.59 0.13L239.59 0.13Q237.40 0.62 235.25 0.62L235.25 0.62L235.25 0.62Q231.71 0.62 228.70-0.58L228.70-0.58L228.70-0.58Q225.69-1.77 223.52-3.92L223.52-3.92L223.52-3.92Q221.34-6.07 220.11-9.05L220.11-9.05L220.11-9.05Q218.87-12.03 218.87-15.58L218.87-15.58L218.87-15.58Q218.87-19.12 220.11-22.10L220.11-22.10L220.11-22.10Q221.34-25.08 223.52-27.23L223.52-27.23L223.52-27.23Q225.69-29.38 228.70-30.57L228.70-30.57L228.70-30.57Q231.71-31.77 235.25-31.77L235.25-31.77L235.25-31.77Q236.97-31.77 238.77-31.53L238.77-31.53L238.77-31.53Q240.57-31.29 242.26-30.76L242.26-30.76L242.26-30.76Q243.96-30.24 245.46-29.41L245.46-29.41L245.46-29.41Q246.96-28.57 248.08-27.35L248.08-27.35L248.08-27.35Q249.19-26.13 249.85-24.52L249.85-24.52L249.85-24.52Q250.51-22.91 250.51-20.84" fill="#51cacc" stroke="none" stroke-width="none" transform="translate(-124.89004039764404,17.191622225443528)" style="fill: rgb(222, 157, 214);"></path></g></g>
</g>
</g>
<style id="breath-6faeda74-00ad-4d1a-9184-c4616cb68b48" data-anikit="">@keyframes breath-6faeda74-00ad-4d1a-9184-c4616cb68b48
{
  0% {
    animation-timing-function: cubic-bezier(0.9647,0.2413,-0.0705,0.7911);
    transform: scale(0.9099999999999999);
  }
  51% {
    animation-timing-function: cubic-bezier(0.9226,0.2631,-0.0308,0.7628);
    transform: scale(1.02994);
  }
  100% {
    transform: scale(0.9099999999999999);
  }
}</style></svg>